<svg version = "1.1" xmlns = "http://www.w3.org/2000/svg">
 <ellipse stroke="#eeeb01" stroke-width="1" fill="#eeeb01" cx="300" cy="70" rx="30" ry="30" />
<path stroke="#a6c918" stroke-width="1" fill="#a6c918" d="M 200,50 L 280,200 L 190,220 L 200,50 " />
<path stroke="#da2727" stroke-width="1" fill="#da2727" d="M 170,220 L 290,220 L 290,270 L 170,270 L 170,220 " />
<path stroke="#da2727" stroke-width="1" fill="#da2727" d="M 170,220 L 170,270 L 160,220 L 170,220 " />
<path stroke="#da2727" stroke-width="1" fill="#da2727" d="M 170,220 L 330,205 L 290,270 L 170,220 " />
<path stroke="#a6c918" stroke-width="1" fill="#a6c918" d="M 580,50 L 740,200 L 560,220 L 580,50 " />
<path stroke="#da2727" stroke-width="1" fill="#da2727" d="M 520,220 L 760,220 L 760,270 L 520,270 L 520,220 " />
<path stroke="#da2727" stroke-width="1" fill="#da2727" d="M 520,220 L 520,270 L 500,220 L 520,220 " />
<path stroke="#da2727" stroke-width="1" fill="#da2727" d="M 520,220 L 840,205 L 760,270 L 520,220 " />
</svg>